<svg width="164" height="164" viewBox="0 0 164 164" fill="none" xmlns="http://www.w3.org/2000/svg">
<path d="M4.1713 63.7522C4.1713 63.3972 4.44942 63.1094 4.79251 63.1094H7.71944C8.06252 63.1094 8.34065 63.3972 8.34065 63.7522V73.3041C8.34065 73.6591 8.06252 73.947 7.71944 73.947H4.79251C4.44942 73.947 4.1713 73.6591 4.1713 73.3041V63.7522Z" fill="#2967FD"/>
<path d="M29.8122 93.6418C29.8122 94.3519 29.256 94.9275 28.5698 94.9275H2.48614C1.79999 94.9275 1.24376 94.3519 1.24371 93.6419L1.24243 73.8211C1.24241 73.4392 1.40636 73.0772 1.68988 72.8329L14.7462 61.5833C15.2073 61.1861 15.8766 61.1865 16.3371 61.5841L29.3658 72.833C29.6487 73.0773 29.8122 73.4389 29.8122 73.8202V76.0741C29.4129 76.4863 29.0485 76.863 28.9572 76.9573L19.0325 87.2279L14.1764 82.247C13.966 82.0292 13.6333 82.0292 13.4228 82.247L11.9851 83.7347C11.7746 83.9525 11.7746 84.3382 11.9851 84.556L18.6143 91.4161C18.8247 91.6339 19.1973 91.6339 19.4078 91.4161L29.8122 80.6491V93.6418Z" fill="url(#paint0_radial_15_112)"/>
<path d="M29.8122 93.6418C29.8122 94.3519 29.256 94.9275 28.5698 94.9275H2.48614C1.79999 94.9275 1.24376 94.3519 1.24371 93.6419L1.24243 73.8211C1.24241 73.4392 1.40636 73.0772 1.68988 72.8329L14.7462 61.5833C15.2073 61.1861 15.8766 61.1865 16.3371 61.5841L29.3658 72.833C29.6487 73.0773 29.8122 73.4389 29.8122 73.8202V76.0741C29.4129 76.4863 29.0485 76.863 28.9572 76.9573L19.0325 87.2279L14.1764 82.247C13.966 82.0292 13.6333 82.0292 13.4228 82.247L11.9851 83.7347C11.7746 83.9525 11.7746 84.3382 11.9851 84.556L18.6143 91.4161C18.8247 91.6339 19.1973 91.6339 19.4078 91.4161L29.8122 80.6491V93.6418Z" fill="url(#paint1_radial_15_112)"/>
<path d="M29.8122 93.6418C29.8122 94.3519 29.256 94.9275 28.5698 94.9275H2.48614C1.79999 94.9275 1.24376 94.3519 1.24371 93.6419L1.24243 73.8211C1.24241 73.4392 1.40636 73.0772 1.68988 72.8329L14.7462 61.5833C15.2073 61.1861 15.8766 61.1865 16.3371 61.5841L29.3658 72.833C29.6487 73.0773 29.8122 73.4389 29.8122 73.8202V76.0741C29.4129 76.4863 29.0485 76.863 28.9572 76.9573L19.0325 87.2279L14.1764 82.247C13.966 82.0292 13.6333 82.0292 13.4228 82.247L11.9851 83.7347C11.7746 83.9525 11.7746 84.3382 11.9851 84.556L18.6143 91.4161C18.8247 91.6339 19.1973 91.6339 19.4078 91.4161L29.8122 80.6491V93.6418Z" fill="url(#paint2_radial_15_112)"/>
<path d="M136.965 94.8686V67.3267H141.788V94.8686H136.965Z" fill="black"/>
<path d="M38.6219 68.0889V94.8689H43.6282V83.3264H54.8558V94.8689H59.8621V68.0889H54.8558V78.7552H43.6282V68.0889H38.6219Z" fill="black"/>
<path fill-rule="evenodd" clip-rule="evenodd" d="M68.1337 93.9921C69.5816 94.8302 71.2013 95.2492 72.9928 95.2492C74.7842 95.2492 76.3917 94.8302 77.8151 93.9921C79.2629 93.1287 80.4041 91.9731 81.2385 90.5255C82.0729 89.0526 82.4901 87.4146 82.4901 85.6114C82.4901 83.8083 82.0729 82.1956 81.2385 80.7735C80.4041 79.3259 79.2629 78.1832 77.8151 77.345C76.3917 76.4815 74.7719 76.0498 72.956 76.0498C71.189 76.0498 69.5816 76.4815 68.1337 77.345C66.6857 78.1832 65.5446 79.3259 64.7103 80.7735C63.8759 82.1956 63.4587 83.8083 63.4587 85.6114C63.4587 87.4146 63.8759 89.0526 64.7103 90.5255C65.5692 91.9731 66.7103 93.1287 68.1337 93.9921ZM75.3487 89.9922C74.6616 90.3986 73.864 90.6018 72.956 90.6018C72.0725 90.6018 71.2872 90.3986 70.6 89.9922C69.913 89.5605 69.373 88.9764 68.9804 88.2399C68.5877 87.478 68.3914 86.6146 68.3914 85.6496C68.3914 84.6845 68.5877 83.8338 68.9804 83.0972C69.373 82.3607 69.913 81.7894 70.6 81.3831C71.2872 80.9513 72.0725 80.7355 72.956 80.7355C73.864 80.7355 74.6616 80.9513 75.3487 81.3831C76.0359 81.7894 76.5758 82.3607 76.9684 83.0972C77.361 83.8338 77.5575 84.6845 77.5575 85.6496C77.5575 86.6146 77.361 87.478 76.9684 88.2399C76.6003 88.9764 76.0605 89.5605 75.3487 89.9922Z" fill="black"/>
<path d="M93.1778 95.2495C91.6072 95.2495 90.2083 94.9066 88.9813 94.221C87.7788 93.5353 86.8339 92.583 86.1468 91.364C85.4596 90.145 85.1161 88.7355 85.1161 87.1355V76.4692H89.9752V87.0212C89.9752 87.7831 90.0979 88.4434 90.3434 89.0021C90.5887 89.5354 90.9569 89.9417 91.4476 90.2211C91.9385 90.5005 92.5151 90.6401 93.1778 90.6401C94.184 90.6401 94.9693 90.3227 95.5337 89.6878C96.0982 89.0529 96.3803 88.1641 96.3803 87.0212V76.4692H101.203V87.1355C101.203 88.7608 100.859 90.1831 100.172 91.402C99.5093 92.621 98.5645 93.5734 97.3375 94.259C96.1349 94.9194 94.7484 95.2495 93.1778 95.2495Z" fill="black"/>
<path d="M105.043 76.4693V94.8687H109.865V84.0119C109.865 83.3009 110.012 82.6913 110.307 82.1834C110.601 81.6755 111.006 81.2945 111.522 81.0406C112.037 80.7612 112.614 80.6216 113.252 80.6216C114.209 80.6216 115.006 80.9263 115.644 81.5358C116.307 82.1199 116.638 82.9452 116.638 84.0119V94.8687H121.461V84.0119C121.461 83.3009 121.608 82.6913 121.902 82.1834C122.197 81.6755 122.602 81.2945 123.117 81.0406C123.657 80.7612 124.234 80.6216 124.847 80.6216C125.804 80.6216 126.602 80.9263 127.24 81.5358C127.903 82.1199 128.234 82.9452 128.234 84.0119V94.8687H133.056V83.2119C133.056 81.739 132.749 80.4692 132.136 79.4026C131.523 78.3359 130.688 77.5232 129.633 76.9645C128.577 76.3804 127.387 76.0884 126.063 76.0884C124.737 76.0884 123.534 76.3931 122.455 77.0027C121.596 77.4671 120.869 78.092 120.275 78.8775C119.724 78.0704 119.028 77.4327 118.184 76.9645C117.178 76.3804 116.062 76.0884 114.835 76.0884C113.534 76.0884 112.368 76.3804 111.338 76.9645C110.787 77.2628 110.296 77.6298 109.865 78.0657V76.4693H105.043Z" fill="black"/>
<path d="M162.985 93.4847C162.985 99.5385 159.232 103.493 153.719 103.493C151.402 103.493 149.449 102.902 147.921 101.776L150.491 97.8621C151.29 98.5244 152.347 98.9436 153.652 98.9436C156.526 98.9436 158.183 96.774 158.183 93.5546V93.0648C157.27 94.4645 155.783 95.2343 153.719 95.2343C148.275 95.2343 145.908 91.63 145.908 86.486V76.4541H150.643V86.311C150.643 88.8305 151.961 90.5453 154.328 90.5453C156.492 90.5453 158.116 88.6905 158.116 86.206V76.4541H162.985V93.4847Z" fill="black"/>
<defs>
<radialGradient id="paint0_radial_15_112" cx="0" cy="0" r="1" gradientUnits="userSpaceOnUse" gradientTransform="translate(6.83334 70.2776) rotate(52.2937) scale(28.4393 29.0707)">
<stop stop-color="#28B2FF"/>
<stop offset="1" stop-color="#2D61E8"/>
</radialGradient>
<radialGradient id="paint1_radial_15_112" cx="0" cy="0" r="1" gradientUnits="userSpaceOnUse" gradientTransform="translate(2.07508 94.9275) scale(39.6438 47.2188)">
<stop stop-color="#52B6FF"/>
<stop offset="0.304854" stop-color="#00A3FF"/>
<stop offset="0.838542" stop-color="#2E62E9"/>
<stop offset="1" stop-color="#0047FF"/>
</radialGradient>
<radialGradient id="paint2_radial_15_112" cx="0" cy="0" r="1" gradientUnits="userSpaceOnUse" gradientTransform="translate(2.07508 94.9275) scale(33.0354 39.3477)">
<stop stop-color="#52B6FF"/>
<stop offset="0.304854" stop-color="#00A3FF"/>
<stop offset="0.727486" stop-color="#2A64FC"/>
<stop offset="1" stop-color="#0047FF"/>
</radialGradient>
</defs>
</svg>
