<svg width="166" height="166" viewBox="0 0 166 166" fill="none" xmlns="http://www.w3.org/2000/svg">
<path d="M48.4378 120.315C47.1039 119.725 45.9567 119.216 45.9567 118.182C45.9567 117.268 46.8447 116.604 48.0643 116.604C49.0362 116.604 49.8861 117.063 49.8861 117.588V118.456H52.0928V117.11C52.0928 115.127 49.6307 114.386 48.0796 114.386C45.4689 114.386 43.5747 116.006 43.5747 118.236C43.5747 120.717 45.6137 121.669 47.4088 122.51C48.7961 123.158 49.9966 123.722 49.9966 124.833C49.9966 125.994 48.9752 126.603 47.9652 126.603C46.1168 126.603 44.7943 125.076 44.7828 125.06L44.5999 124.844L43.2088 126.569L43.327 126.719C43.3956 126.804 45.0001 128.818 47.9309 128.818C50.8618 128.818 52.3977 126.765 52.3977 124.736C52.3977 122.071 50.2024 121.099 48.4378 120.315Z" fill="#E11E2C"/>
<path d="M61.5256 125.442C61.5142 125.454 60.3975 126.7 58.7358 126.7C57.2189 126.7 55.5915 125.697 55.5915 123.498C55.5915 121.631 56.8759 120.277 58.6443 120.277C59.2884 120.277 60.184 120.566 60.184 121.033V121.804H62.3183V120.574C62.3183 118.842 60.1231 118.213 58.6443 118.213C55.5305 118.213 53.2704 120.443 53.2704 123.517C53.2704 126.592 55.5153 128.821 58.6062 128.821C61.2207 128.821 62.6042 127.143 62.6613 127.07L62.7642 126.943L61.7428 125.199L61.5256 125.442Z" fill="#E11E2C"/>
<path d="M68.5573 118.213C65.4931 118.213 63.1835 120.485 63.1835 123.498C63.1835 126.534 65.4931 128.821 68.5573 128.821C71.633 128.821 73.9502 126.534 73.9502 123.498C73.9502 120.485 71.633 118.213 68.5573 118.213ZM68.5573 126.738C66.8461 126.738 65.5045 125.315 65.5045 123.498C65.5045 121.673 66.8156 120.296 68.5573 120.296C70.2952 120.296 71.6101 121.673 71.6101 123.498C71.6101 125.346 70.2991 126.738 68.5573 126.738Z" fill="#E11E2C"/>
<path d="M80.0978 118.213C77.0335 118.213 74.7239 120.485 74.7239 123.498C74.7239 126.534 77.0335 128.821 80.0978 128.821C83.1735 128.821 85.4907 126.534 85.4907 123.498C85.4907 120.485 83.1735 118.213 80.0978 118.213ZM80.0978 126.738C78.3865 126.738 77.045 125.315 77.045 123.498C77.045 121.673 78.356 120.296 80.0978 120.296C81.8357 120.296 83.1506 121.673 83.1506 123.498C83.1506 125.346 81.8395 126.738 80.0978 126.738Z" fill="#E11E2C"/>
<path d="M104.143 126.472C103.876 126.472 103.815 126.434 103.739 126.206L99.5085 114.618H97.1988L92.9646 126.214C92.8921 126.434 92.835 126.472 92.5644 126.472C92.5644 126.472 91.341 126.499 91.1885 126.503C90.3653 126.526 89.5116 126.21 89.5116 124.605V120.408H91.8174V118.441H89.5116V115.783H87.2477V118.441H85.9633V120.408H87.2096V124.817C87.2096 128.293 89.8965 128.594 91.0704 128.594C91.4096 128.594 93.3381 128.594 93.3381 128.594C94.3671 128.594 94.7673 128.312 95.1255 127.329L96.0707 124.713H100.633L101.578 127.329C101.936 128.308 102.336 128.594 103.365 128.594H104.638V126.472H104.143ZM96.6958 122.63L98.0411 118.83C98.144 118.51 98.2584 118.093 98.3498 117.735C98.4489 118.097 98.5671 118.514 98.67 118.838L100.012 122.63H96.6958Z" fill="#E11E2C"/>
<path d="M111.018 114.618H104.909V116.739H106.136V128.594H108.495V123.602H111.018C113.625 123.602 115.447 121.743 115.447 119.081C115.447 116.411 113.667 114.618 111.018 114.618ZM110.717 121.48H108.495V116.736H110.736C112.196 116.736 113.031 117.588 113.031 119.077C113.031 120.585 112.166 121.48 110.717 121.48Z" fill="#E11E2C"/>
<path d="M121 116.739V114.618H116.129V116.739H117.433V126.472H116.129V128.59H121V126.472H119.716V116.739H121Z" fill="#E11E2C"/>
<path d="M100.335 81.5463C94.832 91.1325 87.8194 100.182 83.0706 105.537C82.6894 105.969 82.1406 106.216 81.5651 106.216C80.9934 106.216 80.4446 105.969 80.0597 105.537C79.3584 104.746 73.0127 97.5169 66.7165 87.9422C58.6215 75.6287 54.3452 65.0433 54.3452 57.3281C54.3452 42.1367 66.5565 29.773 81.5651 29.773C96.5738 29.773 108.785 42.1329 108.785 57.3281C108.785 60.7112 107.95 64.4801 106.559 68.4033C108.015 68.7775 109.292 69.5838 110.256 70.687C111.964 66.0849 113.027 61.529 113.027 57.3242C113.027 39.7643 98.9139 25.4795 81.5651 25.4795C64.2164 25.4795 50.1033 39.7643 50.1033 57.3242C50.1033 77.9432 75.8101 107.169 76.904 108.403C78.0893 109.742 79.7891 110.509 81.5651 110.509C83.3412 110.509 85.041 109.742 86.2263 108.407C86.897 107.651 96.8101 96.3866 104.387 83.0315C102.87 82.9543 101.475 82.4142 100.335 81.5463ZM82.7123 39.718C82.7504 39.7141 82.941 39.7103 83.0972 39.9765C83.1773 40.1115 83.3221 40.1771 83.4631 40.1616C83.5165 40.1578 83.5698 40.1385 83.6194 40.1076C83.8023 39.9996 83.8595 39.7604 83.7528 39.5753C83.4479 39.0583 82.9753 38.9118 82.6361 38.9465C82.4265 38.9696 82.274 39.1586 82.2931 39.3708C82.3159 39.583 82.5027 39.7373 82.7123 39.718ZM66.7241 71.5396C68.6412 73.3565 70.1924 72.1529 70.8822 71.5473C72.6544 69.985 76.4199 65.0973 76.4924 64.943C76.6334 64.9392 78.1159 65.2478 81.7938 67.2306C83.3907 68.0909 83.3983 68.4033 83.2954 69.1517C83.1925 69.9039 82.5789 75.2506 82.2549 77.0521C81.9424 78.7842 82.4722 79.2548 83.2154 79.3628C83.9586 79.467 87.2172 79.3358 88.3072 78.9501C89.3934 78.5643 88.6959 77.6925 88.0404 77.5035C87.3849 77.3144 85.4373 76.9865 85.4373 76.9865C85.4373 76.9865 84.3092 76.5931 84.6179 75.6132C84.9266 74.6334 86.9161 70.0968 87.3811 68.3532C87.846 66.6057 86.7484 65.6683 86.2491 65.1012C85.7537 64.5341 81.0468 61.2127 79.4499 60.1519C82.2969 55.7349 86.5045 49.5974 89.9003 48.2356C90.8531 47.8537 92.4538 47.5413 91.2037 46.6463C89.9536 45.7552 87.2858 46.897 85.7765 48.0775C85.7232 48.1199 85.6622 48.1662 85.605 48.2086C85.5936 48.1161 85.5822 48.0196 85.5707 47.927C85.1172 44.7445 85.6279 43.7029 86.3863 42.754C87.1448 41.805 88.1509 40.2233 88.4368 38.9735C88.7226 37.7275 86.8094 35.7061 82.7923 36.5432C80.9858 36.9174 79.7167 37.9358 78.8629 38.9426L70.6002 37.8972C70.6002 37.8972 69.2624 37.6426 69.6817 38.8307C69.8913 39.4325 70.2915 39.907 70.9546 40.3969L77.6815 40.4085L71.5682 40.9177L70.7679 40.9833L68.2601 41.1916C68.2601 41.1916 66.8995 41.2186 67.5474 42.2949C68.1953 43.3712 69.575 44.3356 72.018 44.0887C74.461 43.8418 75.5586 43.1204 76.2904 43.0086C78.5923 42.6614 80.1207 43.9845 80.4865 45.4813C80.7533 46.573 80.3455 47.6686 79.2746 48.4362C75.3871 51.2253 72.9174 54.701 71.3396 57.926C70.8289 57.0812 69.5635 56.5295 69.0147 57.5827C68.4811 58.6127 68.6946 60.4605 69.8189 61.7026C68.706 65.1629 68.5917 67.7089 68.5917 67.7089C68.4544 67.5045 68.2525 67.2537 68.0123 66.9837C67.2806 66.0232 65.5465 63.8012 64.4031 62.2311C63.4617 60.9427 63.0158 59.1064 61.3503 60.0053C60.6871 60.3602 57.9392 61.8106 57.4247 62.8561C56.9102 63.9015 58.0955 64.1946 58.9264 63.8397C59.5552 63.5736 61.3274 63.2071 61.3274 63.2071C61.3274 63.2071 62.4708 62.7596 62.9243 63.6816C63.3207 64.4917 64.567 67.8787 65.4664 69.7998C65.7447 70.4363 66.2668 71.1075 66.7241 71.5396ZM80.4599 38.6572C80.639 38.1595 81.6147 38.0592 82.6399 38.4334C83.6689 38.8076 84.3549 39.5135 84.1796 40.0112C84.0043 40.5088 83.0286 40.6091 81.9996 40.2388C80.9744 39.8607 80.2845 39.1548 80.4599 38.6572ZM109.315 73.7539C108.37 71.339 105.747 70.0968 103.335 70.8375C103.205 70.8761 103.076 70.9185 102.946 70.9686C102.794 71.0304 102.645 71.0998 102.5 71.177C102.481 71.1847 102.466 71.1962 102.447 71.2078C102.325 71.2734 102.207 71.3428 102.092 71.4161C102.062 71.4354 102.031 71.4586 102.001 71.4779C101.902 71.5434 101.807 71.6167 101.715 71.69C101.681 71.717 101.65 71.744 101.616 71.7749C101.57 71.8135 101.525 71.8482 101.479 71.8868L101.483 71.8945C100 73.2446 99.417 75.4319 100.198 77.4147C100.682 78.6453 101.608 79.6136 102.813 80.1421C103.72 80.5394 104.703 80.6474 105.656 80.4661C105.965 80.4083 106.27 80.3195 106.567 80.2C107.783 79.71 108.739 78.7688 109.261 77.5536C109.776 76.3346 109.799 74.9883 109.315 73.7539ZM106.879 76.5159C106.635 77.0907 106.182 77.5343 105.61 77.7658C105.035 77.9972 104.406 77.9857 103.838 77.7388C103.27 77.4919 102.832 77.0328 102.603 76.4542C102.374 75.8717 102.386 75.2352 102.63 74.6604C102.668 74.5717 102.714 74.4868 102.759 74.4019L103.636 76.1186C103.914 76.5429 104.41 76.7358 104.875 76.6432C105.031 76.6124 105.183 76.5545 105.324 76.458C105.885 76.0839 106.029 75.3162 105.66 74.753L104.825 73.2524C105.111 73.2601 105.397 73.3179 105.671 73.4375C106.239 73.6844 106.677 74.1435 106.906 74.7221C107.135 75.3046 107.123 75.9411 106.879 76.5159ZM98.8186 66.6712L96.307 75.158C94.4319 79.764 90.6968 81.0139 90.1671 81.1682L80.0559 84.6979C80.1511 85.5582 80.0063 86.4377 79.6252 87.2363C79.0878 88.3511 78.1579 89.1882 77.0031 89.5933C76.721 89.6897 76.4314 89.763 76.1417 89.8016C75.8635 89.8402 75.5853 89.8517 75.3071 89.8402L69.533 89.8479L73.0775 89.0918C72.8107 88.9336 72.6773 88.8719 72.4524 88.6674L71.9722 88.1582C71.6292 87.7378 71.3586 87.2594 71.1757 86.7271C70.3486 84.3122 71.6178 81.662 74.0036 80.8249C75.6463 80.2462 77.3994 80.6744 78.6038 81.7893L74.865 83.1202C74.8459 83.1279 74.823 83.1317 74.8002 83.1395C74.2552 83.3285 73.8169 83.7258 73.5653 84.2505C73.3138 84.7751 73.2795 85.373 73.4662 85.9247C73.6568 86.4763 74.0494 86.9199 74.5677 87.1745C75.086 87.4291 75.6729 87.4639 76.2218 87.2748C76.7668 87.082 77.2051 86.6846 77.4566 86.16C77.5519 85.9555 77.6167 85.7472 77.651 85.535L75.894 86.1484C75.8178 86.1754 75.7415 86.1909 75.6653 86.2063C75.1012 86.2873 74.5562 86.0944 74.3619 85.5273C74.1408 84.887 74.5029 84.3662 75.1394 84.1424L76.8925 83.5291L79.3432 82.6727L89.5802 79.1044C89.6945 79.0697 92.8349 77.8969 94.3366 74.2322L97.2789 63.6199L90.735 50.7971C90.6511 50.6544 90.533 50.7045 90.3767 50.7547C89.4315 51.2986 89.26 51.3835 89.1342 51.395C89.1076 51.3989 89.0847 51.3989 89.058 51.395C88.6959 51.3796 88.4177 51.0671 88.433 50.7007C88.4444 50.4576 88.5854 50.2532 88.7798 50.1452C88.936 50.0603 90.5978 49.0998 90.5978 49.0998C90.6168 49.0882 90.6359 49.0843 90.6549 49.0727L90.8493 48.9647C91.0475 48.8837 91.2723 48.957 91.3905 49.1383L102.973 69.9078C102.843 69.9464 102.717 69.9927 102.592 70.0428C102.009 70.2743 101.486 70.5906 101.025 70.9725L98.8186 66.6712Z" fill="#E11E2C"/>
</svg>
