<svg width="166" height="166" viewBox="0 0 166 166" fill="none" xmlns="http://www.w3.org/2000/svg">
<path d="M160.88 98.2009C160.881 98.1691 160.881 98.1373 160.881 98.1056V85.1097C160.881 81.7711 159.932 78.7474 157.717 76.4267C155.604 74.1825 152.871 73.0908 149.787 73.0908C148.831 73.0908 147.9 73.1768 147.009 73.3607V68.4734C147.009 66.675 145.562 65.2171 143.776 65.2171H137.47C135.684 65.2171 134.236 66.675 134.236 68.4734V76.1072C133.72 75.7072 133.17 75.3395 132.59 75.0043C130.386 73.7308 127.981 73.0908 125.432 73.0908C121.438 73.0908 117.935 74.4664 115.159 77.2617L115.144 77.2771C114.957 77.4669 114.778 77.66 114.604 77.8563V71.2413L114.593 71.2434C114.587 69.3316 113.858 67.6246 112.511 66.2976C111.188 64.9359 109.484 64.2012 107.576 64.2012C105.652 64.2012 103.941 64.9471 102.6 66.2979C101.26 67.6466 100.559 69.3656 100.559 71.2673C100.559 72.1152 100.698 72.9253 100.968 73.6834H94.5384L94.5232 73.6835H91.4842L91.4665 73.6865V68.4734C91.4665 66.675 90.0187 65.2171 88.2329 65.2171H81.9273C80.1415 65.2171 78.6937 66.675 78.6937 68.4734V69.8085C77.7134 68.6416 76.5686 67.6449 75.255 66.8409C72.843 65.3363 70.1145 64.6245 67.1741 64.6245C63.7761 64.6245 60.709 65.6792 58.1329 67.8286L58.1265 67.834L58.1152 67.8434C58.0831 67.8708 58.0507 67.8983 58.0189 67.9259C57.5123 68.3427 57.0016 68.7919 56.5659 69.1751C56.2909 69.4169 56.046 69.6324 55.8504 69.7972C53.1247 72.1043 51.797 75.2355 51.797 78.8512C51.797 82.3454 53.0124 85.417 55.6819 87.6013C55.6819 87.6013 52.5974 89.914 51.9525 90.2907C50.5835 91.0897 49.9901 92.7689 50.5495 94.2591C51.6578 97.2113 53.7793 99.8048 56.4004 101.491C56.4093 101.497 56.4184 101.503 56.4275 101.508C59.0683 103.171 62.1764 103.908 65.5819 103.908C69.3661 103.908 72.7666 102.965 75.4918 100.792C75.5012 100.785 75.5106 100.777 75.5198 100.77L75.5341 100.758C75.8504 100.497 76.1486 100.225 76.4289 99.9433C76.4289 101.76 77.81 103.316 79.6626 103.316H110.081C111.438 103.316 112.6 102.474 113.08 101.281C113.31 100.708 113.31 100.14 113.31 100.14C115.997 102.635 119.506 103.908 123.167 103.908C125.718 103.908 128.121 103.295 130.31 102.046L130.325 102.037C130.943 101.68 131.524 101.285 132.068 100.852C132.42 102.267 133.691 103.316 135.205 103.316H157.646C159.432 103.316 160.88 101.858 160.88 100.059V98.2009Z" fill="black"/>
<path fill-rule="evenodd" clip-rule="evenodd" d="M116.946 75.7279C119.384 73.9622 122.252 73.0905 125.432 73.0905C127.716 73.0905 129.884 73.6041 131.895 74.6268C132.129 74.7457 132.361 74.8714 132.59 75.004C133.17 75.3392 133.72 75.7069 134.237 76.1069V68.4731C134.237 66.6747 135.684 65.2168 137.47 65.2168H143.776C145.562 65.2168 147.009 66.6747 147.009 68.4731V73.3604C147.764 73.2046 148.548 73.1191 149.35 73.0966C149.495 73.0925 149.641 73.0905 149.787 73.0905C152.871 73.0905 155.604 74.1822 157.717 76.4264C159.932 78.7471 160.881 81.7708 160.881 85.1093V98.1052C160.881 98.137 160.881 98.169 160.88 98.2005V100.059C160.88 101.857 159.432 103.315 157.647 103.315H135.205C134.547 103.315 133.935 103.117 133.424 102.777C132.76 102.335 132.267 101.652 132.068 100.852C131.525 101.285 130.943 101.68 130.325 102.037L130.311 102.045C130.223 102.095 130.136 102.144 130.048 102.192C127.929 103.343 125.617 103.908 123.168 103.908C120.394 103.908 117.708 103.178 115.4 101.738C114.661 101.278 113.961 100.745 113.31 100.14C113.31 100.14 113.31 100.707 113.08 101.28C112.908 101.707 112.649 102.09 112.324 102.404C111.743 102.968 110.952 103.315 110.081 103.315H79.6626C78.733 103.315 77.9221 102.923 77.3449 102.304C76.7717 101.688 76.4289 100.848 76.4289 99.9429C76.1486 100.225 75.8504 100.496 75.5344 100.757L75.52 100.769C75.5106 100.777 75.5012 100.784 75.4918 100.792C75.118 101.09 74.7313 101.365 74.3326 101.618C71.8263 103.206 68.8468 103.908 65.5819 103.908C62.1767 103.908 59.0686 103.17 56.4276 101.508C56.4184 101.502 56.4096 101.497 56.4004 101.491C53.7793 99.8044 51.6578 97.2109 50.5495 94.2588C49.9901 92.7685 50.5835 91.0893 51.9525 90.2903C52.2355 90.1251 52.9883 89.5871 53.7439 89.0352C54.7106 88.3292 55.6819 87.6009 55.6819 87.6009C55.0489 87.083 54.4975 86.5149 54.025 85.9033C52.5044 83.9361 51.797 81.5164 51.797 78.8509C51.797 75.2351 53.125 72.104 55.8504 69.7968C56.046 69.6321 56.2912 69.4166 56.5659 69.1749C57.0016 68.7916 57.5124 68.3424 58.0189 67.9256C58.051 67.8979 58.0831 67.8704 58.1155 67.8431L58.1266 67.8337L58.1329 67.8283C60.709 65.6789 63.7761 64.6242 67.1741 64.6242C70.1148 64.6242 72.8433 65.336 75.255 66.8406C75.6573 67.0869 76.0438 67.3512 76.4148 67.633C76.7631 67.8978 77.0979 68.178 77.4185 68.4731C77.8709 68.8891 78.2958 69.3346 78.694 69.8082V68.4731C78.694 67.8819 78.8503 67.3276 79.1239 66.8497C79.6822 65.8738 80.7286 65.2168 81.9274 65.2168H88.2329C90.0188 65.2168 91.4666 66.6747 91.4666 68.4731V73.6862L91.4845 73.6832H94.5232L94.5384 73.6831H100.968C100.705 72.9425 100.566 72.1522 100.56 71.3255C100.56 71.306 100.559 71.2865 100.559 71.267C100.559 69.3653 101.26 67.6463 102.6 66.2975C103.941 64.9467 105.652 64.2009 107.577 64.2009C109.484 64.2009 111.188 64.9355 112.511 66.2973C113.858 67.6243 114.599 69.3292 114.605 71.241V77.856C114.778 77.6597 114.957 77.4666 115.144 77.2767L115.159 77.2614C115.725 76.6913 116.321 76.1803 116.946 75.7279ZM116.946 72.9256C119.483 71.4559 122.353 70.7329 125.432 70.7329C127.686 70.7329 129.855 71.1673 131.895 72.0311V68.4731C131.895 65.3726 134.391 62.8592 137.47 62.8592H143.776C146.855 62.8592 149.35 65.3726 149.35 68.4731V70.7382C149.496 70.7346 149.642 70.7329 149.787 70.7329C153.459 70.7329 156.822 72.0522 159.41 74.7982C162.135 77.6561 163.223 81.3167 163.223 85.1093V98.1052C163.223 98.1333 163.223 98.1612 163.222 98.1891C163.222 98.2027 163.222 98.2164 163.221 98.2297V100.059C163.221 103.159 160.725 105.673 157.647 105.673H135.205C133.724 105.673 132.379 105.092 131.382 104.144C128.847 105.571 126.073 106.266 123.168 106.266C120.014 106.266 116.924 105.441 114.245 103.791C113.225 104.944 111.739 105.673 110.081 105.673H79.6626C77.9102 105.673 76.4364 104.887 75.4451 103.697C72.5182 105.511 69.1274 106.266 65.5819 106.266C61.8419 106.266 58.2793 105.454 55.1867 103.507C55.1867 103.507 55.1867 103.507 55.1867 103.507C55.1715 103.498 55.156 103.488 55.1402 103.478C52.103 101.524 49.6501 98.5295 48.3597 95.0926C47.3952 92.5233 48.4183 89.6286 50.778 88.2509C50.7777 88.2509 50.7777 88.2509 50.778 88.2509C50.7789 88.2503 50.7954 88.2403 50.8331 88.2158C50.8729 88.1899 50.9244 88.1556 50.9883 88.1124C51.1158 88.0255 51.2749 87.9143 51.4581 87.7845C51.6661 87.6366 51.8969 87.4705 52.1348 87.2975C50.288 84.8811 49.4558 81.9481 49.4558 78.8509C49.4558 74.6006 51.0442 70.7855 54.3443 67.9921L54.3462 67.9904L54.3481 67.9888C54.5202 67.8437 54.744 67.647 55.026 67.3992L55.0373 67.3891C55.4609 67.0165 55.9871 66.5538 56.5164 66.1175C56.5471 66.091 56.5781 66.0646 56.609 66.0383L56.611 66.0367L56.6273 66.0229L56.6392 66.0129C59.6604 63.4922 63.2643 62.2666 67.1741 62.2666C70.4985 62.2666 73.6603 63.0748 76.4795 64.8311C76.7554 65.0002 77.0248 65.1765 77.2877 65.3599C78.2873 63.8522 79.9924 62.8592 81.9274 62.8592H88.2329C91.3119 62.8592 93.8077 65.3726 93.8077 68.4731V71.3256H94.5232L94.5356 71.3255H98.2186C98.2183 71.306 98.2183 71.2865 98.2183 71.267C98.2183 68.7446 99.1626 66.4245 100.944 64.6305C102.708 62.8538 105.008 61.8433 107.577 61.8433C110.114 61.8433 112.412 62.8327 114.167 64.6301C115.937 66.3829 116.938 68.6796 116.946 71.2335V71.2372V72.9256Z" fill="white"/>
<path d="M67.8968 98.7729C64.9544 98.7729 62.4741 98.138 60.4564 96.8681C58.4386 95.5698 56.9953 93.7638 56.1265 91.4497L61.9277 88.063C63.1046 90.8006 65.1644 92.1694 68.107 92.1694C70.7694 92.1694 72.1004 91.365 72.1004 89.7563C72.1004 88.8534 71.6661 88.1761 70.7973 87.7245C69.9006 87.1881 68.3032 86.6098 66.0052 85.9887C63.651 85.3399 61.6615 84.4085 60.0361 83.1949C58.2425 81.7275 57.3455 79.6532 57.3455 76.9722C57.3455 74.2348 58.3125 72.0476 60.2461 70.4108C62.2079 68.774 64.5339 67.9556 67.2242 67.9556C69.6345 67.9556 71.7643 68.5341 73.6138 69.6912C75.4636 70.82 76.9208 72.4709 77.9857 74.644L72.3107 77.9882C71.2458 75.7023 69.5504 74.5593 67.2242 74.5593C66.2434 74.5593 65.4729 74.771 64.9124 75.1943C64.3518 75.6176 64.0716 76.1538 64.0716 76.8029C64.0716 77.5084 64.4077 78.1434 65.0803 78.7078C65.809 79.2722 67.2383 79.8649 69.3681 80.4857L72.1004 81.3747C72.8012 81.6005 73.6138 81.9815 74.5387 82.5177C75.5477 83.0258 76.3041 83.576 76.8087 84.1686C78.1539 85.636 78.8265 87.4704 78.8265 89.6716C78.8265 92.4655 77.8175 94.6949 75.7997 96.3602C73.782 97.9686 71.1476 98.7729 67.8968 98.7729Z" fill="white"/>
<path d="M94.2943 87.597L102.155 98.1799H95.009L88.2832 88.8246V98.1799H81.9774V68.5479H88.2832V86.2848L94.5887 77.0142H101.945L94.2943 87.597Z" fill="white"/>
<path d="M110.275 74.0513C109.546 74.7851 108.664 75.1519 107.627 75.1519C106.59 75.1519 105.693 74.7851 104.936 74.0513C104.208 73.2893 103.843 72.3863 103.843 71.3421C103.843 70.2979 104.208 69.409 104.936 68.6752C105.693 67.9132 106.59 67.5322 107.627 67.5322C108.664 67.5322 109.546 67.9132 110.275 68.6752C111.032 69.409 111.41 70.2979 111.41 71.3421C111.41 72.3863 111.032 73.2893 110.275 74.0513ZM110.779 98.1803H104.474V77.0145H110.779V98.1803Z" fill="white"/>
<path d="M125.482 98.7729C122.287 98.7729 119.625 97.7005 117.495 95.5558C115.393 93.4111 114.343 90.7582 114.343 87.5974C114.343 84.4366 115.393 81.7839 117.495 79.6391C119.625 77.4943 122.287 76.4219 125.482 76.4219C127.472 76.4219 129.322 76.9157 131.031 77.9035C132.741 78.8912 134.058 80.2035 134.983 81.8403L129.476 85.0576C128.719 83.4771 127.36 82.6869 125.398 82.6869C124.025 82.6869 122.89 83.1525 121.993 84.0839C121.096 84.9868 120.648 86.1581 120.648 87.5974C120.648 89.0367 121.096 90.2219 121.993 91.1532C122.89 92.0562 124.025 92.5078 125.398 92.5078C127.388 92.5078 128.747 91.7177 129.476 90.1372L134.983 93.3122C134.058 95.0055 132.741 96.3459 131.031 97.3336C129.35 98.2931 127.5 98.7729 125.482 98.7729Z" fill="white"/>
<path d="M149.837 76.4215C152.107 76.4215 153.971 77.1976 155.428 78.7498C156.941 80.3301 157.698 82.4749 157.698 85.184V98.1799H151.393V86.1154C151.393 84.9021 151.056 83.9565 150.384 83.2792C149.711 82.6019 148.828 82.2633 147.735 82.2633C146.502 82.2633 145.535 82.6443 144.835 83.4062C144.162 84.1401 143.826 85.2124 143.826 86.6233V98.1799H137.52V68.5479H143.826V79.0037C145.087 77.2823 147.091 76.4215 149.837 76.4215Z" fill="white"/>
<path d="M19.4533 65.5248C22.2424 62.0456 25.0779 61.4741 29.2024 62.305C29.2467 62.3139 29.2907 62.3241 29.3344 62.3355C29.7549 62.4128 30.1705 62.5349 30.5733 62.7021C33.0166 63.717 34.6143 66.2394 34.2688 69.0511L33.916 71.92L35.711 72.2142C39.5606 72.8448 41.6591 76.784 40.4747 80.1866C40.042 81.7197 38.963 83.2715 37.9185 84.6395L37.8967 84.6682L25.1247 100.671C22.7938 103.591 18.9117 104.318 15.7819 102.822C12.6481 101.324 10.7575 97.8287 11.5582 94.16L11.8379 92.8787C6.55863 91.5598 4.19866 85.1752 7.55745 80.6972L7.57911 80.6684L19.4533 65.5248Z" fill="black"/>
<path d="M13.6595 82.0505L25.9058 66.488C26.7589 65.4039 28.1757 65.0762 29.3931 65.5819C30.6082 66.0866 31.3651 67.3119 31.1983 68.6686L30.4795 74.5131L35.2141 75.289C37.4421 75.6539 38.4354 78.2315 37.1085 79.9807L23.934 96.4286C23.0382 97.5467 21.5551 97.8392 20.3242 97.2528C19.0963 96.668 18.4 95.344 18.7036 93.9577L20.1249 87.4686L15.5686 86.7223C13.3518 86.3587 12.3542 83.8022 13.6595 82.0505Z" fill="white"/>
<path fill-rule="evenodd" clip-rule="evenodd" d="M25.9462 62.4448C24.1813 62.9825 22.4591 64.2566 21.0022 66.2084L20.9936 66.2199L8.70875 81.8872C5.84545 85.7192 7.82508 91.4549 12.4546 92.6114L13.5866 92.8942L13.0469 95.3668C12.3439 98.5875 13.9975 101.659 16.7601 102.979C19.5198 104.298 22.9298 103.653 24.9782 101.087C24.9782 101.087 24.9782 101.087 24.9782 101.087L38.183 84.5424L38.198 84.5229C39.2831 83.1017 40.2611 81.6616 40.6393 80.3235L40.6492 80.2885L40.6611 80.2542C41.6497 77.4173 39.8931 74.1226 36.6719 73.5948L33.6761 73.104L34.183 68.9836C34.183 68.9835 34.183 68.9836 34.183 68.9836C34.4881 66.5002 33.5306 64.3272 31.4058 63.1237C29.5507 62.073 27.6877 61.9141 25.9462 62.4448ZM25.2522 60.1354C27.6313 59.4105 30.1683 59.6545 32.5802 61.0208C35.6529 62.7612 36.9707 65.9457 36.5609 69.28L36.3377 71.0956L37.0564 71.2134C41.7883 71.9885 44.3726 76.8226 42.9339 81.0187C42.4099 82.8391 41.1655 84.5948 40.0976 85.9936L40.0668 86.0338L26.8457 102.599H26.8457C24.0711 106.075 19.4488 106.935 15.7327 105.159C12.0112 103.38 9.75287 99.2191 10.7067 94.8489L10.7617 94.597C5.2518 92.4356 3.14809 85.2977 6.80432 80.4231L6.81207 80.4127L19.0957 64.747C20.7852 62.4877 22.9006 60.852 25.2522 60.1354Z" fill="white"/>
</svg>
